<svg width="1000px" height="1000px" viewBox="0 0 1000 1000" version="1.1" xmlns="http://www.w3.org/2000/svg" xmlns:xlink="http://www.w3.org/1999/xlink" x="0px" y="0px" enable-background="new 0 0 1000 1000" xml:space="preserve">
  <g>
    <g transform="translate(0.000000,511.000000) scale(0.100000,-0.100000)">
      <path d="M2163.6,3526L1893.2,3213h275.4H2444l230.3,270.4c127.7,147.7,247.9,287.9,267.9,313c35.1,40.1,22.5,42.6-235.3,42.6h-275.4L2163.6,3526z"/>
      <path d="M3490.6,3526l267.9-312.9h275.4c257.9,0,270.4,2.5,235.3,45.1c-20,22.5-140.2,162.7-267.9,312.9l-232.8,267.9h-272.9h-275.4L3490.6,3526z"/>
      <path d="M6151.9,3596.1c-117.7-135.2-240.3-275.4-270.4-312.9l-60.1-70.1h275.4h275.4l220.3,257.9c120.2,140.2,240.4,280.4,267.9,313l50.1,55.1h-272.9h-275.4L6151.9,3596.1z"/>
      <path d="M7336.1,3621.1c105.2-122.7,225.3-262.9,272.9-315.4l82.6-95.1l267.9,7.5l267.9,7.5L7962,3533.5l-265.4,305.4h-272.9h-272.9L7336.1,3621.1z"/>
      <path d="M2849.6,3518.5l-252.9-292.9l250.4-7.5c137.7-2.5,365.5-2.5,505.7,0l252.9,7.5l-250.4,292.9l-252.9,292.9L2849.6,3518.5z"/>
      <path d="M6767.8,3508.5L6525,3225.6l250.4-7.5c140.2-2.5,365.5-2.5,505.7,0l250.4,7.5L7291,3508.5c-132.7,152.7-250.4,280.4-260.4,280.4C7018.1,3788.9,6900.5,3661.2,6767.8,3508.5z"/>
      <path d="M1925.8,3090.4c2.5-15,182.8-207.8,395.6-433.1l388.1-408.1l-162.7-32.5c-237.8-47.6-548.3-145.2-743.6-232.8c-425.6-190.3-948.9-635.9-1204.2-1024C95.6,196.2-34.6-742.7,243.3-1591.4c500.7-1532.2,2143.1-2375.9,3680.3-1890.2c343,107.7,748.6,328,988.9,540.8l87.6,75.1l87.6-75.1c255.4-225.3,703.5-463.2,1071.5-565.8c1331.9-380.5,2764,232.9,3404.9,1459.6c603.4,1156.7,378.1,2566.2-553.3,3462.5c-423.1,408.1-908.8,668.5-1454.6,778.6l-152.7,32.6l340.5,360.5c190.3,200.3,378.1,400.6,420.6,445.6l77.6,82.6l-272.9-7.5l-270.4-7.5l-192.8-425.6c-160.2-353-202.8-428.1-250.4-433.1c-72.6-12.5-70.1-5,150.2,478.2c95.2,205.3,170.3,380.6,165.3,385.6c-5,5-252.9,5-550.8,2.5l-540.8-7.5l185.3-410.6c102.6-225.3,187.8-413.1,187.8-418.1c0-5-25-10-57.6-10c-50.1,0-80.1,55.1-245.4,420.6l-190.3,418.1l-252.9,7.5c-140.2,2.5-255.4-2.5-255.4-12.5c0-12.5,175.3-205.3,388.1-430.6c215.3-225.3,388.1-413.1,383.1-415.6c-5-2.5-97.6-25-210.3-47.6c-443.1-87.6-858.7-270.4-1199.2-528.3l-215.3-162.7l-155.2,120.2c-373,287.9-771.1,473.2-1214.3,563.3l-152.7,32.6l355.5,375.5c195.3,207.8,383.1,408.1,418.1,445.6l60.1,67.6l-267.9-7.5l-270.4-7.5l-192.8-425.6c-157.7-348-205.3-428.1-250.4-433.1c-30-5-55.1-2.5-55.1,7.5c0,7.5,85.1,200.3,187.8,428.1c102.6,227.8,187.8,418.1,187.8,425.6c0,5-242.9,10-538.3,10c-385.6,0-538.3-7.5-538.3-27.5c0-17.5,80.1-202.8,175.3-415.6c97.6-212.8,175.3-390.6,175.3-398.1c0-5-25-10-55.1-10c-50.1,2.5-85.1,60.1-245.3,420.6l-190.3,418.1l-257.9,7.5C2010.9,3112.9,1918.3,3105.4,1925.8,3090.4z M3530.6,1808.5c405.6-80.1,843.7-285.4,1111.6-515.7l80.1-70.1l-132.7-177.8c-743.6-1006.4-746.1-2423.5-7.5-3445l140.2-195.3L4554.6-2723c-217.8-165.3-613.4-355.5-881.3-425.6c-300.4-77.6-818.7-95.2-1101.6-37.6c-993.9,202.8-1737.5,901.3-2007.9,1887.7c-45.1,157.7-52.6,267.9-55.1,605.9c-2.5,373,5,435.6,65.1,650.9c122.7,438.1,312.9,781.1,605.9,1096.6C1783.1,1698.3,2671.9,1983.8,3530.6,1808.5z M7609,1778.5C8688.1,1495.5,9449.2,551.7,9499.2-567.4c30-713.5-200.3-1339.4-686-1852.7c-333-353-693.5-573.3-1171.7-716c-205.3-62.6-262.9-70.1-663.5-70.1c-380.6-2.5-465.7,5-650.9,55.1c-265.4,70.1-716,292.9-906.3,443.1l-142.7,115.2l140.2,192.8c758.6,1056.5,736.1,2478.6-55.1,3515.1l-87.6,115.2l167.7,127.7c302.9,227.8,718.5,403.1,1131.6,480.7c62.6,10,267.9,15,453.1,12.5C7291,1843.5,7421.2,1828.5,7609,1778.5z M5168,699.4c145.2-220.3,260.4-473.2,340.5-761.1c45.1-162.7,52.6-260.4,52.6-630.9c0-403.1-7.5-455.7-67.6-663.5c-37.5-122.7-117.7-325.5-180.3-450.6c-102.6-210.3-280.4-485.7-315.5-488.2c-22.5,0-230.3,318-310.4,473.2c-167.7,335.5-237.8,615.9-255.4,1029c-15,388.1,22.5,650.9,142.7,981.4c115.2,318,368,733.6,433.1,716C5025.3,899.7,5095.4,807,5168,699.4z"/>
    </g>
  </g>
</svg>
