<svg height="800" width="800" version="1.1" id="_x32_" xmlns="http://www.w3.org/2000/svg" viewBox="0 0 512 512" xml:space="preserve">
  <style>
    .st0{fill:#000}
  </style>
  <path class="st0" d="M145.764 98.011c27.058 0 49.002-21.943 49.002-49.009C194.766 21.935 172.822 0 145.764 0c-27.066 0-49.009 21.935-49.009 49.002 0 27.066 21.943 49.009 49.009 49.009"/>
  <circle class="st0" cx="110.089" cy="377.876" r="48.646"/>
  <path class="st0" d="M110.321 450.209c-33.874-.248-61.543 27-61.799 60.874l122.673.917c.247-33.874-27-61.534-60.874-61.791"/>
  <circle class="st0" cx="271.065" cy="377.876" r="48.646"/>
  <path class="st0" d="M271.288 450.209c-33.866-.248-61.544 27-61.792 60.874L332.17 512c.248-33.874-27.008-61.534-60.882-61.791"/>
  <circle class="st0" cx="432.033" cy="377.876" r="48.646"/>
  <path class="st0" d="M432.255 450.209c-33.866-.248-61.535 27-61.782 60.874l122.665.917c.255-33.874-27.009-61.534-60.883-61.791M272.66 235.671h-53.513v-39.657c.264-35.212-24.332-64.79-57.363-72.143l-6.089 18.87h-19.87l-6.072-18.837c-32.602 7.287-57.115 36.187-57.371 71.011v40.756H18.861v33.635H272.66zm-136.835-82.074h19.87v61.114l-9.932 8.592-9.939-8.592z"/>
</svg>
